999
FreeCAD v0.20 29603 (Git)
  0
SECTION
  2
HEADER
  9
$ACADVER
  1
AC1014
  9
$ACADMAINTVER
 70
     9
  9
$DWGCODEPAGE
  3
ANSI_1252
  9
$TEXTSTYLE
  7
STANDARD
  9
$DIMSTYLE
  2
STANDARD
  9
$DIMTXSTY
  7
STANDARD
  9
$CMLSTYLE
  2
STANDARD
  9
$LUNITS
 70
2
  9
$INSUNITS
 70
4
  9
$PEXTMAX
 10
50
 20
50
 30
50
  9
$PEXTMIN
 10
0
 20
0
 30
0
  9
$HANDSEED
  5
FFFF
  0
ENDSEC
  0
SECTION
  2
CLASSES
  0
CLASS
  1
ACDBDICTIONARYWDFLT
  2
AcDbDictionaryWithDefault
  3
ObjectDBX Classes
 90
        0
280
     0
281
     0
  0
CLASS
  1
XRECORD
  2
AcDbXrecord
  3
ObjectDBX Classes
 90
        0
280
     0
281
     0
  0
CLASS
  1
LWPOLYLINE
  2
AcDbPolyline
  3
ObjectDBX Classes
 90
        0
280
     0
281
     1
  0
ENDSEC
  0
SECTION
  2
TABLES
  0
TABLE
  2
VPORT
  5
20
330
0
100
AcDbSymbolTable
 70
     1
  0
VPORT
  5
21
330
20
100
AcDbSymbolTableRecord
100
AcDbViewportTableRecord
  2
*ACTIVE
 70
     0
  0
ENDTAB
  0
TABLE
  2
LTYPE
  5
22
330
0
100
AcDbSymbolTable
 70
     1
  0
LTYPE
  5
23
330
21
100
AcDbSymbolTableRecord
100
AcDbLinetypeTableRecord
  2
BYBLOCK
 70
     0
  3

 72
    65
 73
     0
 40
0.0
  0
LTYPE
  5
24
330
21
100
AcDbSymbolTableRecord
100
AcDbLinetypeTableRecord
  2
BYLAYER
 70
     0
  3

 72
    65
 73
     0
 40
0.0
  0
LTYPE
  5
25
330
21
100
AcDbSymbolTableRecord
100
AcDbLinetypeTableRecord
  2
CONTINUOUS
 70
     0
  3
Solid line
 72
    65
 73
     0
 40
0.0
  0
ENDTAB
  0
TABLE
  2
LAYER
  5
AF5
330
0
100
AcDbSymbolTable
 70
3
  0
LAYER
  5
AF6
330
AF5
100
AcDbSymbolTableRecord
100
AcDbLayerTableRecord
  2
0
 70
   0
 62
   7
  6
CONTINUOUS
  0
LAYER
  5
AF7
330
AF5
100
AcDbSymbolTableRecord
100
AcDbLayerTableRecord
  2
none
 70
    0
 62
    7
  6
CONTINUOUS
  0
LAYER
  5
AF8
330
AF5
100
AcDbSymbolTableRecord
100
AcDbLayerTableRecord
  2
Shape2DView001
 70
    0
 62
    7
  6
CONTINUOUS
  0
ENDTAB
  0
TABLE
  2
STYLE
  5
70
330
0
100
AcDbSymbolTable
 70
     2
  0
STYLE
  5
71
330
70
100
AcDbSymbolTableRecord
100
AcDbTextStyleTableRecord
  2
STANDARD
 70
     0
 40
0.0
 41
1.0
 50
0.0
 71
     0
 42
2.5
  3
arial.ttf
  4

  0
STYLE
  5
72
330
70
100
AcDbSymbolTableRecord
100
AcDbTextStyleTableRecord
  2
ANNOTATIVE
 70
     0
 40
0.0
 41
1.0
 50
0.0
 71
     0
 42
2.5
  3
arial.ttf
  4

  0
ENDTAB
  0
TABLE
  2
VIEW
  5
73
330
0
100
AcDbSymbolTable
 70
     0
  0
ENDTAB
  0
TABLE
  2
UCS
  5
74
330
0
100
AcDbSymbolTable
 70
     0
  0
ENDTAB
  0
TABLE
  2
APPID
  5
75
330
0
100
AcDbSymbolTable
 70
     2
  0
APPID
  5
76
330
75
100
AcDbSymbolTableRecord
100
AcDbRegAppTableRecord
  2
ACAD
 70
     0
  0
APPID
  5
77
330
75
100
AcDbSymbolTableRecord
100
AcDbRegAppTableRecord
  2
ACADANNOTATIVE
 70
     0
  0
ENDTAB
  0
TABLE
  2
DIMSTYLE
  5
78
330
0
100
AcDbSymbolTable
 70
     2
  0
DIMSTYLE
105
79
330
78
100
AcDbSymbolTableRecord
100
AcDbDimStyleTableRecord
  2
STANDARD
 70
     0
  3

  4

  5

  6

  7

 40
0.0
 41
2.5
 42
0.625
 43
3.75
 44
1.25
 45
0.0
 46
0.0
 47
0.0
 48
0.0
140
2.5
141
2.5
142
0.0
143
0.03937007874016
144
1.0
145
0.0
146
1.0
147
0.625
 71
     0
 72
     0
 73
     0
 74
     0
 75
     0
 76
     0
 77
     1
 78
     8
170
     0
171
     3
172
     1
173
     0
174
     0
175
     0
176
     0
177
     0
178
     0
270
     2
271
     2
272
     2
273
     2
274
     3
340
71
275
     0
280
     0
281
     0
282
     0
283
     0
284
     8
285
     0
286
     0
287
     3
288
     0
  0
ENDTAB
  0
TABLE
  2
BLOCK_RECORD
  5
A01
330
0
100
AcDbSymbolTable
  70
5
  0
BLOCK_RECORD
  5
A02
330
A01
100
AcDbSymbolTableRecord
100
AcDbBlockTableRecord
  2
*MODEL_SPACE
  0
BLOCK_RECORD
  5
A03
330
A01
100
AcDbSymbolTableRecord
100
AcDbBlockTableRecord
  2
*PAPER_SPACE
  0
ENDTAB
  0
ENDSEC
  0
SECTION
  2
BLOCKS
  0
BLOCK
  5
A04
330
A02
100
AcDbEntity
  8
0
100
AcDbBlockBegin
  2
*MODEL_SPACE
 70
   0
 10
0
 20
0
 30
0
  3
*MODEL_SPACE
  1
 
  0
ENDBLK
  5
A05
330
A02
100
AcDbEntity
  8
0
100
AcDbBlockEnd
  0
BLOCK
  5
A06
330
A03
100
AcDbEntity
 67
1
  8
0
100
AcDbBlockBegin
  2
*PAPER_SPACE
 70
   0
 10
0
 20
0
 30
0
  3
*PAPER_SPACE
  1
 
  0
ENDBLK
  5
A07
330
A03
100
AcDbEntity
 67
    1
  8
0
100
AcDbBlockEnd
  0
ENDSEC
  0
SECTION
  2
ENTITIES
  0
LINE
  5
A08
330
A02
100
AcDbEntity
  8
Shape2DView001
100
AcDbLine
 10
14.682
 20
12.1002
 30
0
 11
-14.8935
 21
12.0689
 31
0
  0
LINE
  5
A09
330
A02
100
AcDbEntity
  8
Shape2DView001
100
AcDbLine
 10
-97.0455
 20
-3.85098
 30
0
 11
-99.9378
 21
-3.85404
 31
0
  0
LINE
  5
A0A
330
A02
100
AcDbEntity
  8
Shape2DView001
100
AcDbLine
 10
-57.9912
 20
12.0233
 30
0
 11
-57.9912
 21
14.9319
 31
0
  0
LINE
  5
A0B
330
A02
100
AcDbEntity
  8
Shape2DView001
100
AcDbLine
 10
-96.9397
 20
-12.0972
 30
0
 11
-70.7299
 21
-12.0694
 31
0
  0
LINE
  5
A0C
330
A02
100
AcDbEntity
  8
Shape2DView001
100
AcDbLine
 10
-57.9912
 20
-15.0546
 30
0
 11
-70.6242
 21
-15.068
 31
0
  0
LINE
  5
A0D
330
A02
100
AcDbEntity
  8
Shape2DView001
100
AcDbLine
 10
-14.7877
 20
12.069
 30
0
 11
-14.7877
 21
14.9776
 31
0
  0
LINE
  5
A0E
330
A02
100
AcDbEntity
  8
Shape2DView001
100
AcDbLine
 10
-57.9912
 20
-12.056
 30
0
 11
-57.9912
 21
-15.0546
 31
0
  0
LINE
  5
A0F
330
A02
100
AcDbEntity
  8
Shape2DView001
100
AcDbLine
 10
-57.9912
 20
-12.056
 30
0
 11
-27.5265
 21
-12.0237
 31
0
  0
LINE
  5
A10
330
A02
100
AcDbEntity
  8
Shape2DView001
100
AcDbLine
 10
-27.4207
 20
-15.0223
 30
0
 11
-14.7877
 21
-15.0089
 31
0
  0
LINE
  5
A11
330
A02
100
AcDbEntity
  8
Shape2DView001
100
AcDbLine
 10
27.4207
 20
12.1136
 30
0
 11
27.4207
 21
15.0223
 31
0
  0
LINE
  5
A12
330
A02
100
AcDbEntity
  8
Shape2DView001
100
AcDbLine
 10
-14.7877
 20
-12.0102
 30
0
 11
-14.7877
 21
-15.0089
 31
0
  0
LINE
  5
A13
330
A02
100
AcDbEntity
  8
Shape2DView001
100
AcDbLine
 10
-14.7877
 20
-12.0102
 30
0
 11
14.682
 21
-11.9791
 31
0
  0
LINE
  5
A14
330
A02
100
AcDbEntity
  8
Shape2DView001
100
AcDbLine
 10
27.4207
 20
-14.9642
 30
0
 11
14.7877
 21
-14.9776
 31
0
  0
LINE
  5
A15
330
A02
100
AcDbEntity
  8
Shape2DView001
100
AcDbLine
 10
70.6242
 20
12.1593
 30
0
 11
70.6242
 21
15.068
 31
0
  0
LINE
  5
A16
330
A02
100
AcDbEntity
  8
Shape2DView001
100
AcDbLine
 10
27.4207
 20
-11.9656
 30
0
 11
27.4207
 21
-14.9642
 31
0
  0
LINE
  5
A17
330
A02
100
AcDbEntity
  8
Shape2DView001
100
AcDbLine
 10
27.4207
 20
-11.9656
 30
0
 11
57.8854
 21
-11.9334
 31
0
  0
LINE
  5
A18
330
A02
100
AcDbEntity
  8
Shape2DView001
100
AcDbLine
 10
96.9397
 20
3.94089
 30
0
 11
96.9397
 21
12.0972
 31
0
  0
LINE
  5
A19
330
A02
100
AcDbEntity
  8
Shape2DView001
100
AcDbLine
 10
57.9912
 20
-14.9319
 30
0
 11
70.6242
 21
-14.9185
 31
0
  0
LINE
  5
A1A
330
A02
100
AcDbEntity
  8
Shape2DView001
100
AcDbLine
 10
99.9378
 20
3.85404
 30
0
 11
99.9378
 21
-3.64259
 31
0
  0
LINE
  5
A1B
330
A02
100
AcDbEntity
  8
Shape2DView001
100
AcDbLine
 10
70.6242
 20
-11.9199
 30
0
 11
70.6242
 21
-14.9185
 31
0
  0
LINE
  5
A1C
330
A02
100
AcDbEntity
  8
Shape2DView001
100
AcDbLine
 10
96.9397
 20
-3.64576
 30
0
 11
99.9378
 21
-3.64259
 31
0
  0
LINE
  5
A1D
330
A02
100
AcDbEntity
  8
Shape2DView001
100
AcDbLine
 10
70.6242
 20
-11.9199
 30
0
 11
96.9397
 21
-11.892
 31
0
  0
LINE
  5
A1E
330
A02
100
AcDbEntity
  8
Shape2DView001
100
AcDbLine
 10
96.9397
 20
-11.892
 30
0
 11
96.9397
 21
-3.64576
 31
0
  0
LINE
  5
A1F
330
A02
100
AcDbEntity
  8
Shape2DView001
100
AcDbLine
 10
72.7048
 20
9.07287
 30
0
 11
77.5959
 21
9.07804
 31
0
  0
LINE
  5
A20
330
A02
100
AcDbEntity
  8
Shape2DView001
100
AcDbLine
 10
72.7048
 20
9.07287
 30
0
 11
72.7048
 21
4.07512
 31
0
  0
LINE
  5
A21
330
A02
100
AcDbEntity
  8
Shape2DView001
100
AcDbLine
 10
72.7048
 20
4.07512
 30
0
 11
70.2063
 21
4.07247
 31
0
  0
LINE
  5
A22
330
A02
100
AcDbEntity
  8
Shape2DView001
100
AcDbLine
 10
77.7017
 20
4.0804
 30
0
 11
80.0943
 21
4.08293
 31
0
  0
LINE
  5
A23
330
A02
100
AcDbEntity
  8
Shape2DView001
100
AcDbLine
 10
70.2063
 20
-3.83391
 30
0
 11
70.2063
 21
4.07247
 31
0
  0
LINE
  5
A24
330
A02
100
AcDbEntity
  8
Shape2DView001
100
AcDbLine
 10
51.2181
 20
9.05014
 30
0
 11
56.1093
 21
9.05531
 31
0
  0
LINE
  5
A25
330
A02
100
AcDbEntity
  8
Shape2DView001
100
AcDbLine
 10
51.2181
 20
9.05014
 30
0
 11
51.2181
 21
4.05239
 31
0
  0
LINE
  5
A26
330
A02
100
AcDbEntity
  8
Shape2DView001
100
AcDbLine
 10
51.2181
 20
4.05239
 30
0
 11
48.7197
 21
4.04974
 31
0
  0
LINE
  5
A27
330
A02
100
AcDbEntity
  8
Shape2DView001
100
AcDbLine
 10
56.215
 20
4.05767
 30
0
 11
58.6077
 21
4.0602
 31
0
  0
LINE
  5
A28
330
A02
100
AcDbEntity
  8
Shape2DView001
100
AcDbLine
 10
48.7197
 20
-3.85664
 30
0
 11
48.7197
 21
4.04974
 31
0
  0
LINE
  5
A29
330
A02
100
AcDbEntity
  8
Shape2DView001
100
AcDbLine
 10
29.7315
 20
9.02741
 30
0
 11
34.6226
 21
9.03258
 31
0
  0
LINE
  5
A2A
330
A02
100
AcDbEntity
  8
Shape2DView001
100
AcDbLine
 10
29.7315
 20
9.02741
 30
0
 11
29.7315
 21
4.02965
 31
0
  0
LINE
  5
A2B
330
A02
100
AcDbEntity
  8
Shape2DView001
100
AcDbLine
 10
29.7315
 20
4.02965
 30
0
 11
27.2331
 21
4.02701
 31
0
  0
LINE
  5
A2C
330
A02
100
AcDbEntity
  8
Shape2DView001
100
AcDbLine
 10
34.7284
 20
4.03494
 30
0
 11
37.1211
 21
4.03747
 31
0
  0
LINE
  5
A2D
330
A02
100
AcDbEntity
  8
Shape2DView001
100
AcDbLine
 10
27.2331
 20
-3.87937
 30
0
 11
27.2331
 21
4.02701
 31
0
  0
LINE
  5
A2E
330
A02
100
AcDbEntity
  8
Shape2DView001
100
AcDbLine
 10
8.24487
 20
9.00467
 30
0
 11
13.136
 21
9.00985
 31
0
  0
LINE
  5
A2F
330
A02
100
AcDbEntity
  8
Shape2DView001
100
AcDbLine
 10
8.24487
 20
9.00467
 30
0
 11
8.24487
 21
4.00692
 31
0
  0
LINE
  5
A30
330
A02
100
AcDbEntity
  8
Shape2DView001
100
AcDbLine
 10
8.24487
 20
4.00692
 30
0
 11
5.74643
 21
4.00428
 31
0
  0
LINE
  5
A31
330
A02
100
AcDbEntity
  8
Shape2DView001
100
AcDbLine
 10
13.2418
 20
4.01221
 30
0
 11
15.6344
 21
4.01474
 31
0
  0
LINE
  5
A32
330
A02
100
AcDbEntity
  8
Shape2DView001
100
AcDbLine
 10
5.74643
 20
-3.9021
 30
0
 11
5.74643
 21
4.00428
 31
0
  0
ELLIPSE
  5
A33
330
A02
100
AcDbEntity
  8
Shape2DView001
100
AcDbEllipse
 10
42.9733
 20
0.0454622
 30
0
 11
1.13347
 21
1.33332
 31
0
 40
0.998929
 41
0.039715
 42
3.10188
  0
LINE
  5
A34
330
A02
100
AcDbEntity
  8
Shape2DView001
100
AcDbLine
 10
-13.2418
 20
8.98194
 30
0
 11
-8.35064
 21
8.98712
 31
0
  0
LINE
  5
A35
330
A02
100
AcDbEntity
  8
Shape2DView001
100
AcDbLine
 10
-13.2418
 20
8.98194
 30
0
 11
-13.2418
 21
3.98419
 31
0
  0
LINE
  5
A36
330
A02
100
AcDbEntity
  8
Shape2DView001
100
AcDbLine
 10
-13.2418
 20
3.98419
 30
0
 11
-15.7402
 21
3.98155
 31
0
  0
LINE
  5
A37
330
A02
100
AcDbEntity
  8
Shape2DView001
100
AcDbLine
 10
-8.24487
 20
3.98948
 30
0
 11
-5.85219
 21
3.99201
 31
0
  0
LINE
  5
A38
330
A02
100
AcDbEntity
  8
Shape2DView001
100
AcDbLine
 10
-15.7402
 20
-3.92483
 30
0
 11
-15.7402
 21
3.98155
 31
0
  0
LINE
  5
A39
330
A02
100
AcDbEntity
  8
Shape2DView001
100
AcDbLine
 10
-34.7284
 20
8.95921
 30
0
 11
-29.8373
 21
8.96439
 31
0
  0
LINE
  5
A3A
330
A02
100
AcDbEntity
  8
Shape2DView001
100
AcDbLine
 10
-34.7284
 20
8.95921
 30
0
 11
-34.7284
 21
3.96146
 31
0
  0
LINE
  5
A3B
330
A02
100
AcDbEntity
  8
Shape2DView001
100
AcDbLine
 10
-34.7284
 20
3.96146
 30
0
 11
-37.2268
 21
3.95882
 31
0
  0
LINE
  5
A3C
330
A02
100
AcDbEntity
  8
Shape2DView001
100
AcDbLine
 10
-29.7315
 20
3.96675
 30
0
 11
-27.3388
 21
3.96928
 31
0
  0
LINE
  5
A3D
330
A02
100
AcDbEntity
  8
Shape2DView001
100
AcDbLine
 10
-37.2268
 20
-3.94756
 30
0
 11
-37.2268
 21
3.95882
 31
0
  0
LINE
  5
A3E
330
A02
100
AcDbEntity
  8
Shape2DView001
100
AcDbLine
 10
-56.215
 20
8.93648
 30
0
 11
-51.3239
 21
8.94166
 31
0
  0
LINE
  5
A3F
330
A02
100
AcDbEntity
  8
Shape2DView001
100
AcDbLine
 10
-56.215
 20
8.93648
 30
0
 11
-56.215
 21
3.93873
 31
0
  0
LINE
  5
A40
330
A02
100
AcDbEntity
  8
Shape2DView001
100
AcDbLine
 10
-56.215
 20
3.93873
 30
0
 11
-58.7135
 21
3.93609
 31
0
  0
LINE
  5
A41
330
A02
100
AcDbEntity
  8
Shape2DView001
100
AcDbLine
 10
-51.2181
 20
3.94402
 30
0
 11
-48.8255
 21
3.94655
 31
0
  0
LINE
  5
A42
330
A02
100
AcDbEntity
  8
Shape2DView001
100
AcDbLine
 10
-58.7135
 20
-3.97029
 30
0
 11
-58.7135
 21
3.93609
 31
0
  0
LINE
  5
A43
330
A02
100
AcDbEntity
  8
Shape2DView001
100
AcDbLine
 10
-77.7017
 20
8.91375
 30
0
 11
-72.8105
 21
8.91892
 31
0
  0
LINE
  5
A44
330
A02
100
AcDbEntity
  8
Shape2DView001
100
AcDbLine
 10
-77.7017
 20
8.91375
 30
0
 11
-77.7017
 21
3.916
 31
0
  0
LINE
  5
A45
330
A02
100
AcDbEntity
  8
Shape2DView001
100
AcDbLine
 10
-77.7017
 20
3.916
 30
0
 11
-80.2001
 21
3.91336
 31
0
  0
LINE
  5
A46
330
A02
100
AcDbEntity
  8
Shape2DView001
100
AcDbLine
 10
-72.7048
 20
3.92129
 30
0
 11
-70.3121
 21
3.92382
 31
0
  0
LINE
  5
A47
330
A02
100
AcDbEntity
  8
Shape2DView001
100
AcDbLine
 10
-80.2001
 20
-3.99302
 30
0
 11
-80.2001
 21
3.91336
 31
0
  0
ELLIPSE
  5
A48
330
A02
100
AcDbEntity
  8
Shape2DView001
100
AcDbEllipse
 10
-3.54779e-15
 20
1.77545e-15
 30
0
 11
1.13347
 21
1.33332
 31
0
 40
0.998929
 41
0.039715
 42
3.10188
  0
ELLIPSE
  5
A49
330
A02
100
AcDbEntity
  8
Shape2DView001
100
AcDbEllipse
 10
-42.9733
 20
-0.0454622
 30
0
 11
1.13347
 21
1.33332
 31
0
 40
0.998929
 41
0.039715
 42
3.10188
  0
LINE
  5
A4A
330
A02
100
AcDbEntity
  8
Shape2DView001
100
AcDbLine
 10
-14.8935
 20
12.0689
 30
0
 11
-14.8935
 21
15.0675
 31
0
  0
LINE
  5
A4B
330
A02
100
AcDbEntity
  8
Shape2DView001
100
AcDbLine
 10
-14.7877
 20
14.9776
 30
0
 11
-14.8935
 21
15.0675
 31
0
  0
LINE
  5
A4C
330
A02
100
AcDbEntity
  8
Shape2DView001
100
AcDbLine
 10
-97.0455
 20
11.982
 30
0
 11
-97.0455
 21
3.73567
 31
0
  0
LINE
  5
A4D
330
A02
100
AcDbEntity
  8
Shape2DView001
100
AcDbLine
 10
-70.7299
 20
12.0098
 30
0
 11
-97.0455
 21
11.982
 31
0
  0
LINE
  5
A4E
330
A02
100
AcDbEntity
  8
Shape2DView001
100
AcDbLine
 10
-97.0455
 20
3.73567
 30
0
 11
-100.044
 21
3.7325
 31
0
  0
LINE
  5
A4F
330
A02
100
AcDbEntity
  8
Shape2DView001
100
AcDbLine
 10
-70.7299
 20
12.0098
 30
0
 11
-70.7299
 21
15.0085
 31
0
  0
LINE
  5
A50
330
A02
100
AcDbEntity
  8
Shape2DView001
100
AcDbLine
 10
-100.044
 20
-3.76413
 30
0
 11
-100.044
 21
3.7325
 31
0
  0
LINE
  5
A51
330
A02
100
AcDbEntity
  8
Shape2DView001
100
AcDbLine
 10
-70.7299
 20
15.0085
 30
0
 11
-58.0969
 21
15.0218
 31
0
  0
LINE
  5
A52
330
A02
100
AcDbEntity
  8
Shape2DView001
100
AcDbLine
 10
-97.0455
 20
-3.76096
 30
0
 11
-100.044
 21
-3.76413
 31
0
  0
LINE
  5
A53
330
A02
100
AcDbEntity
  8
Shape2DView001
100
AcDbLine
 10
-58.0969
 20
12.0232
 30
0
 11
-58.0969
 21
15.0218
 31
0
  0
LINE
  5
A54
330
A02
100
AcDbEntity
  8
Shape2DView001
100
AcDbLine
 10
-97.0455
 20
-3.76096
 30
0
 11
-97.0455
 21
-12.0072
 31
0
  0
LINE
  5
A55
330
A02
100
AcDbEntity
  8
Shape2DView001
100
AcDbLine
 10
-27.5265
 20
12.0555
 30
0
 11
-58.0969
 21
12.0232
 31
0
  0
LINE
  5
A56
330
A02
100
AcDbEntity
  8
Shape2DView001
100
AcDbLine
 10
-97.0455
 20
-12.0072
 30
0
 11
-70.7299
 21
-11.9794
 31
0
  0
LINE
  5
A57
330
A02
100
AcDbEntity
  8
Shape2DView001
100
AcDbLine
 10
-27.5265
 20
12.0555
 30
0
 11
-27.5265
 21
15.0542
 31
0
  0
LINE
  5
A58
330
A02
100
AcDbEntity
  8
Shape2DView001
100
AcDbLine
 10
-70.7299
 20
-11.9794
 30
0
 11
-70.7299
 21
-14.9781
 31
0
  0
LINE
  5
A59
330
A02
100
AcDbEntity
  8
Shape2DView001
100
AcDbLine
 10
-14.8935
 20
15.0675
 30
0
 11
-27.5265
 21
15.0542
 31
0
  0
LINE
  5
A5A
330
A02
100
AcDbEntity
  8
Shape2DView001
100
AcDbLine
 10
-70.7299
 20
-14.9781
 30
0
 11
-58.0969
 21
-14.9647
 31
0
  0
LINE
  5
A5B
330
A02
100
AcDbEntity
  8
Shape2DView001
100
AcDbLine
 10
-58.0969
 20
-11.966
 30
0
 11
-58.0969
 21
-14.9647
 31
0
  0
LINE
  5
A5C
330
A02
100
AcDbEntity
  8
Shape2DView001
100
AcDbLine
 10
-58.0969
 20
-11.966
 30
0
 11
-27.5265
 21
-11.9337
 31
0
  0
LINE
  5
A5D
330
A02
100
AcDbEntity
  8
Shape2DView001
100
AcDbLine
 10
14.682
 20
12.1002
 30
0
 11
14.682
 21
15.0988
 31
0
  0
LINE
  5
A5E
330
A02
100
AcDbEntity
  8
Shape2DView001
100
AcDbLine
 10
-27.5265
 20
-11.9337
 30
0
 11
-27.5265
 21
-14.9324
 31
0
  0
LINE
  5
A5F
330
A02
100
AcDbEntity
  8
Shape2DView001
100
AcDbLine
 10
14.682
 20
15.0988
 30
0
 11
27.315
 21
15.1122
 31
0
  0
LINE
  5
A60
330
A02
100
AcDbEntity
  8
Shape2DView001
100
AcDbLine
 10
-14.8935
 20
-14.919
 30
0
 11
-27.5265
 21
-14.9324
 31
0
  0
LINE
  5
A61
330
A02
100
AcDbEntity
  8
Shape2DView001
100
AcDbLine
 10
27.315
 20
12.1135
 30
0
 11
27.315
 21
15.1122
 31
0
  0
LINE
  5
A62
330
A02
100
AcDbEntity
  8
Shape2DView001
100
AcDbLine
 10
-14.8935
 20
-11.9203
 30
0
 11
-14.8935
 21
-14.919
 31
0
  0
LINE
  5
A63
330
A02
100
AcDbEntity
  8
Shape2DView001
100
AcDbLine
 10
57.8854
 20
12.1459
 30
0
 11
27.315
 21
12.1135
 31
0
  0
LINE
  5
A64
330
A02
100
AcDbEntity
  8
Shape2DView001
100
AcDbLine
 10
-14.8935
 20
-11.9203
 30
0
 11
14.682
 21
-11.889
 31
0
  0
LINE
  5
A65
330
A02
100
AcDbEntity
  8
Shape2DView001
100
AcDbLine
 10
57.8854
 20
12.1459
 30
0
 11
57.8854
 21
15.1445
 31
0
  0
LINE
  5
A66
330
A02
100
AcDbEntity
  8
Shape2DView001
100
AcDbLine
 10
14.682
 20
-11.889
 30
0
 11
14.682
 21
-14.8877
 31
0
  0
LINE
  5
A67
330
A02
100
AcDbEntity
  8
Shape2DView001
100
AcDbLine
 10
70.5184
 20
15.1579
 30
0
 11
57.8854
 21
15.1445
 31
0
  0
LINE
  5
A68
330
A02
100
AcDbEntity
  8
Shape2DView001
100
AcDbLine
 10
14.682
 20
-14.8877
 30
0
 11
27.315
 21
-14.8743
 31
0
  0
LINE
  5
A69
330
A02
100
AcDbEntity
  8
Shape2DView001
100
AcDbLine
 10
70.5184
 20
12.1592
 30
0
 11
70.5184
 21
15.1579
 31
0
  0
LINE
  5
A6A
330
A02
100
AcDbEntity
  8
Shape2DView001
100
AcDbLine
 10
27.315
 20
-11.8757
 30
0
 11
27.315
 21
-14.8743
 31
0
  0
LINE
  5
A6B
330
A02
100
AcDbEntity
  8
Shape2DView001
100
AcDbLine
 10
96.8339
 20
12.1871
 30
0
 11
70.5184
 21
12.1592
 31
0
  0
LINE
  5
A6C
330
A02
100
AcDbEntity
  8
Shape2DView001
100
AcDbLine
 10
27.315
 20
-11.8757
 30
0
 11
57.8854
 21
-11.8433
 31
0
  0
LINE
  5
A6D
330
A02
100
AcDbEntity
  8
Shape2DView001
100
AcDbLine
 10
96.8339
 20
3.94078
 30
0
 11
96.8339
 21
12.1871
 31
0
  0
LINE
  5
A6E
330
A02
100
AcDbEntity
  8
Shape2DView001
100
AcDbLine
 10
57.8854
 20
-11.8433
 30
0
 11
57.8854
 21
-14.842
 31
0
  0
LINE
  5
A6F
330
A02
100
AcDbEntity
  8
Shape2DView001
100
AcDbLine
 10
96.8339
 20
3.94078
 30
0
 11
99.8321
 21
3.94395
 31
0
  0
LINE
  5
A70
330
A02
100
AcDbEntity
  8
Shape2DView001
100
AcDbLine
 10
70.5184
 20
-14.8286
 30
0
 11
57.8854
 21
-14.842
 31
0
  0
LINE
  5
A71
330
A02
100
AcDbEntity
  8
Shape2DView001
100
AcDbLine
 10
99.8321
 20
-3.55268
 30
0
 11
99.8321
 21
3.94395
 31
0
  0
LINE
  5
A72
330
A02
100
AcDbEntity
  8
Shape2DView001
100
AcDbLine
 10
70.5184
 20
-11.83
 30
0
 11
70.5184
 21
-14.8286
 31
0
  0
LINE
  5
A73
330
A02
100
AcDbEntity
  8
Shape2DView001
100
AcDbLine
 10
96.8339
 20
-3.55585
 30
0
 11
99.8321
 21
-3.55268
 31
0
  0
LINE
  5
A74
330
A02
100
AcDbEntity
  8
Shape2DView001
100
AcDbLine
 10
70.5184
 20
-11.83
 30
0
 11
96.8339
 21
-11.8021
 31
0
  0
LINE
  5
A75
330
A02
100
AcDbEntity
  8
Shape2DView001
100
AcDbLine
 10
96.8339
 20
-11.8021
 30
0
 11
96.8339
 21
-3.55585
 31
0
  0
LINE
  5
A76
330
A02
100
AcDbEntity
  8
Shape2DView001
100
AcDbLine
 10
72.599
 20
9.16278
 30
0
 11
72.599
 21
4.16503
 31
0
  0
LINE
  5
A77
330
A02
100
AcDbEntity
  8
Shape2DView001
100
AcDbLine
 10
72.599
 20
9.16278
 30
0
 11
77.5959
 21
9.16807
 31
0
  0
LINE
  5
A78
330
A02
100
AcDbEntity
  8
Shape2DView001
100
AcDbLine
 10
72.599
 20
4.16503
 30
0
 11
70.1006
 21
4.16238
 31
0
  0
LINE
  5
A79
330
A02
100
AcDbEntity
  8
Shape2DView001
100
AcDbLine
 10
77.5959
 20
9.16807
 30
0
 11
77.5959
 21
4.17031
 31
0
  0
LINE
  5
A7A
330
A02
100
AcDbEntity
  8
Shape2DView001
100
AcDbLine
 10
70.1006
 20
-3.83402
 30
0
 11
70.1006
 21
4.16238
 31
0
  0
LINE
  5
A7B
330
A02
100
AcDbEntity
  8
Shape2DView001
100
AcDbLine
 10
77.5959
 20
4.17031
 30
0
 11
80.0943
 21
4.17296
 31
0
  0
LINE
  5
A7C
330
A02
100
AcDbEntity
  8
Shape2DView001
100
AcDbLine
 10
80.0943
 20
-3.82344
 30
0
 11
70.1006
 21
-3.83402
 31
0
  0
LINE
  5
A7D
330
A02
100
AcDbEntity
  8
Shape2DView001
100
AcDbLine
 10
80.0943
 20
4.17296
 30
0
 11
80.0943
 21
-3.82344
 31
0
  0
ELLIPSE
  5
A7E
330
A02
100
AcDbEntity
  8
Shape2DView001
100
AcDbEllipse
 10
42.8675
 20
0.135373
 30
0
 11
1.13347
 21
1.33332
 31
0
 40
0.998929
 41
5.41747
 42
0
  0
ELLIPSE
  5
A7F
330
A02
100
AcDbEntity
  8
Shape2DView001
100
AcDbEllipse
 10
42.8675
 20
0.135373
 30
0
 11
1.13347
 21
1.33332
 31
0
 40
0.998929
 41
3.33067e-16
 42
3.14159
  0
ELLIPSE
  5
A80
330
A02
100
AcDbEntity
  8
Shape2DView001
100
AcDbEllipse
 10
42.8675
 20
0.135373
 30
0
 11
1.13347
 21
1.33332
 31
0
 40
0.998929
 41
3.14159
 42
5.41747
  0
LINE
  5
A81
330
A02
100
AcDbEntity
  8
Shape2DView001
100
AcDbLine
 10
51.1124
 20
9.14005
 30
0
 11
51.1124
 21
4.1423
 31
0
  0
LINE
  5
A82
330
A02
100
AcDbEntity
  8
Shape2DView001
100
AcDbLine
 10
51.1124
 20
9.14005
 30
0
 11
56.1093
 21
9.14533
 31
0
  0
LINE
  5
A83
330
A02
100
AcDbEntity
  8
Shape2DView001
100
AcDbLine
 10
51.1124
 20
4.1423
 30
0
 11
48.6139
 21
4.13965
 31
0
  0
LINE
  5
A84
330
A02
100
AcDbEntity
  8
Shape2DView001
100
AcDbLine
 10
56.1093
 20
9.14533
 30
0
 11
56.1093
 21
4.14758
 31
0
  0
LINE
  5
A85
330
A02
100
AcDbEntity
  8
Shape2DView001
100
AcDbLine
 10
48.6139
 20
-3.85675
 30
0
 11
48.6139
 21
4.13965
 31
0
  0
LINE
  5
A86
330
A02
100
AcDbEntity
  8
Shape2DView001
100
AcDbLine
 10
56.1093
 20
4.14758
 30
0
 11
58.6077
 21
4.15023
 31
0
  0
LINE
  5
A87
330
A02
100
AcDbEntity
  8
Shape2DView001
100
AcDbLine
 10
58.6077
 20
-3.84618
 30
0
 11
48.6139
 21
-3.85675
 31
0
  0
LINE
  5
A88
330
A02
100
AcDbEntity
  8
Shape2DView001
100
AcDbLine
 10
58.6077
 20
4.15023
 30
0
 11
58.6077
 21
-3.84618
 31
0
  0
LINE
  5
A89
330
A02
100
AcDbEntity
  8
Shape2DView001
100
AcDbLine
 10
29.6257
 20
9.11732
 30
0
 11
29.6257
 21
4.11957
 31
0
  0
LINE
  5
A8A
330
A02
100
AcDbEntity
  8
Shape2DView001
100
AcDbLine
 10
29.6257
 20
9.11732
 30
0
 11
34.6226
 21
9.1226
 31
0
  0
LINE
  5
A8B
330
A02
100
AcDbEntity
  8
Shape2DView001
100
AcDbLine
 10
29.6257
 20
4.11957
 30
0
 11
27.1273
 21
4.11692
 31
0
  0
LINE
  5
A8C
330
A02
100
AcDbEntity
  8
Shape2DView001
100
AcDbLine
 10
34.6226
 20
9.1226
 30
0
 11
34.6226
 21
4.12485
 31
0
  0
LINE
  5
A8D
330
A02
100
AcDbEntity
  8
Shape2DView001
100
AcDbLine
 10
27.1273
 20
-3.87948
 30
0
 11
27.1273
 21
4.11692
 31
0
  0
LINE
  5
A8E
330
A02
100
AcDbEntity
  8
Shape2DView001
100
AcDbLine
 10
34.6226
 20
4.12485
 30
0
 11
37.1211
 21
4.1275
 31
0
  0
LINE
  5
A8F
330
A02
100
AcDbEntity
  8
Shape2DView001
100
AcDbLine
 10
37.1211
 20
-3.86891
 30
0
 11
27.1273
 21
-3.87948
 31
0
  0
LINE
  5
A90
330
A02
100
AcDbEntity
  8
Shape2DView001
100
AcDbLine
 10
37.1211
 20
4.1275
 30
0
 11
37.1211
 21
-3.86891
 31
0
  0
LINE
  5
A91
330
A02
100
AcDbEntity
  8
Shape2DView001
100
AcDbLine
 10
8.13911
 20
9.09459
 30
0
 11
8.13911
 21
4.09683
 31
0
  0
LINE
  5
A92
330
A02
100
AcDbEntity
  8
Shape2DView001
100
AcDbLine
 10
8.13911
 20
9.09459
 30
0
 11
13.136
 21
9.09987
 31
0
  0
LINE
  5
A93
330
A02
100
AcDbEntity
  8
Shape2DView001
100
AcDbLine
 10
8.13911
 20
4.09683
 30
0
 11
5.64066
 21
4.09419
 31
0
  0
LINE
  5
A94
330
A02
100
AcDbEntity
  8
Shape2DView001
100
AcDbLine
 10
13.136
 20
9.09987
 30
0
 11
13.136
 21
4.10212
 31
0
  0
LINE
  5
A95
330
A02
100
AcDbEntity
  8
Shape2DView001
100
AcDbLine
 10
5.64066
 20
-3.90221
 30
0
 11
5.64066
 21
4.09419
 31
0
  0
LINE
  5
A96
330
A02
100
AcDbEntity
  8
Shape2DView001
100
AcDbLine
 10
13.136
 20
4.10212
 30
0
 11
15.6344
 21
4.10476
 31
0
  0
LINE
  5
A97
330
A02
100
AcDbEntity
  8
Shape2DView001
100
AcDbLine
 10
15.6344
 20
-3.89164
 30
0
 11
5.64066
 21
-3.90221
 31
0
  0
LINE
  5
A98
330
A02
100
AcDbEntity
  8
Shape2DView001
100
AcDbLine
 10
15.6344
 20
4.10476
 30
0
 11
15.6344
 21
-3.89164
 31
0
  0
ELLIPSE
  5
A99
330
A02
100
AcDbEntity
  8
Shape2DView001
100
AcDbEllipse
 10
-0.105765
 20
0.0899112
 30
0
 11
1.13347
 21
1.33332
 31
0
 40
0.998929
 41
5.41747
 42
0
  0
ELLIPSE
  5
A9A
330
A02
100
AcDbEntity
  8
Shape2DView001
100
AcDbEllipse
 10
-0.105765
 20
0.0899112
 30
0
 11
1.13347
 21
1.33332
 31
0
 40
0.998929
 41
3.33067e-16
 42
3.14159
  0
ELLIPSE
  5
A9B
330
A02
100
AcDbEntity
  8
Shape2DView001
100
AcDbEllipse
 10
-0.105765
 20
0.0899112
 30
0
 11
1.13347
 21
1.33332
 31
0
 40
0.998929
 41
3.14159
 42
5.41747
  0
LINE
  5
A9C
330
A02
100
AcDbEntity
  8
Shape2DView001
100
AcDbLine
 10
-13.3475
 20
9.07185
 30
0
 11
-13.3475
 21
4.0741
 31
0
  0
LINE
  5
A9D
330
A02
100
AcDbEntity
  8
Shape2DView001
100
AcDbLine
 10
-13.3475
 20
9.07185
 30
0
 11
-8.35064
 21
9.07714
 31
0
  0
LINE
  5
A9E
330
A02
100
AcDbEntity
  8
Shape2DView001
100
AcDbLine
 10
-13.3475
 20
4.0741
 30
0
 11
-15.846
 21
4.07146
 31
0
  0
LINE
  5
A9F
330
A02
100
AcDbEntity
  8
Shape2DView001
100
AcDbLine
 10
-8.35064
 20
9.07714
 30
0
 11
-8.35064
 21
4.07939
 31
0
  0
LINE
  5
AA0
330
A02
100
AcDbEntity
  8
Shape2DView001
100
AcDbLine
 10
-15.846
 20
-3.92494
 30
0
 11
-15.846
 21
4.07146
 31
0
  0
LINE
  5
AA1
330
A02
100
AcDbEntity
  8
Shape2DView001
100
AcDbLine
 10
-8.35064
 20
4.07939
 30
0
 11
-5.85219
 21
4.08203
 31
0
  0
LINE
  5
AA2
330
A02
100
AcDbEntity
  8
Shape2DView001
100
AcDbLine
 10
-5.85219
 20
-3.91437
 30
0
 11
-15.846
 21
-3.92494
 31
0
  0
LINE
  5
AA3
330
A02
100
AcDbEntity
  8
Shape2DView001
100
AcDbLine
 10
-5.85219
 20
4.08203
 30
0
 11
-5.85219
 21
-3.91437
 31
0
  0
LINE
  5
AA4
330
A02
100
AcDbEntity
  8
Shape2DView001
100
AcDbLine
 10
-34.8342
 20
9.04912
 30
0
 11
-34.8342
 21
4.05137
 31
0
  0
LINE
  5
AA5
330
A02
100
AcDbEntity
  8
Shape2DView001
100
AcDbLine
 10
-34.8342
 20
9.04912
 30
0
 11
-29.8373
 21
9.05441
 31
0
  0
LINE
  5
AA6
330
A02
100
AcDbEntity
  8
Shape2DView001
100
AcDbLine
 10
-34.8342
 20
4.05137
 30
0
 11
-37.3326
 21
4.04873
 31
0
  0
LINE
  5
AA7
330
A02
100
AcDbEntity
  8
Shape2DView001
100
AcDbLine
 10
-29.8373
 20
9.05441
 30
0
 11
-29.8373
 21
4.05666
 31
0
  0
LINE
  5
AA8
330
A02
100
AcDbEntity
  8
Shape2DView001
100
AcDbLine
 10
-37.3326
 20
-3.94767
 30
0
 11
-37.3326
 21
4.04873
 31
0
  0
LINE
  5
AA9
330
A02
100
AcDbEntity
  8
Shape2DView001
100
AcDbLine
 10
-29.8373
 20
4.05666
 30
0
 11
-27.3388
 21
4.0593
 31
0
  0
LINE
  5
AAA
330
A02
100
AcDbEntity
  8
Shape2DView001
100
AcDbLine
 10
-27.3388
 20
-3.9371
 30
0
 11
-37.3326
 21
-3.94767
 31
0
  0
LINE
  5
AAB
330
A02
100
AcDbEntity
  8
Shape2DView001
100
AcDbLine
 10
-27.3388
 20
4.0593
 30
0
 11
-27.3388
 21
-3.9371
 31
0
  0
ELLIPSE
  5
AAC
330
A02
100
AcDbEntity
  8
Shape2DView001
100
AcDbEllipse
 10
-43.079
 20
0.044449
 30
0
 11
1.13347
 21
1.33332
 31
0
 40
0.998929
 41
5.41747
 42
0
  0
ELLIPSE
  5
AAD
330
A02
100
AcDbEntity
  8
Shape2DView001
100
AcDbEllipse
 10
-43.079
 20
0.044449
 30
0
 11
1.13347
 21
1.33332
 31
0
 40
0.998929
 41
3.33067e-16
 42
3.14159
  0
ELLIPSE
  5
AAE
330
A02
100
AcDbEntity
  8
Shape2DView001
100
AcDbEllipse
 10
-43.079
 20
0.044449
 30
0
 11
1.13347
 21
1.33332
 31
0
 40
0.998929
 41
3.14159
 42
5.41747
  0
LINE
  5
AAF
330
A02
100
AcDbEntity
  8
Shape2DView001
100
AcDbLine
 10
-56.3208
 20
9.02639
 30
0
 11
-56.3208
 21
4.02864
 31
0
  0
LINE
  5
AB0
330
A02
100
AcDbEntity
  8
Shape2DView001
100
AcDbLine
 10
-56.3208
 20
9.02639
 30
0
 11
-51.3239
 21
9.03168
 31
0
  0
LINE
  5
AB1
330
A02
100
AcDbEntity
  8
Shape2DView001
100
AcDbLine
 10
-56.3208
 20
4.02864
 30
0
 11
-58.8192
 21
4.026
 31
0
  0
LINE
  5
AB2
330
A02
100
AcDbEntity
  8
Shape2DView001
100
AcDbLine
 10
-51.3239
 20
9.03168
 30
0
 11
-51.3239
 21
4.03393
 31
0
  0
LINE
  5
AB3
330
A02
100
AcDbEntity
  8
Shape2DView001
100
AcDbLine
 10
-58.8192
 20
-3.9704
 30
0
 11
-58.8192
 21
4.026
 31
0
  0
LINE
  5
AB4
330
A02
100
AcDbEntity
  8
Shape2DView001
100
AcDbLine
 10
-51.3239
 20
4.03393
 30
0
 11
-48.8255
 21
4.03657
 31
0
  0
LINE
  5
AB5
330
A02
100
AcDbEntity
  8
Shape2DView001
100
AcDbLine
 10
-48.8255
 20
-3.95983
 30
0
 11
-58.8192
 21
-3.9704
 31
0
  0
LINE
  5
AB6
330
A02
100
AcDbEntity
  8
Shape2DView001
100
AcDbLine
 10
-48.8255
 20
4.03657
 30
0
 11
-48.8255
 21
-3.95983
 31
0
  0
LINE
  5
AB7
330
A02
100
AcDbEntity
  8
Shape2DView001
100
AcDbLine
 10
-77.8074
 20
9.00366
 30
0
 11
-77.8074
 21
4.00591
 31
0
  0
LINE
  5
AB8
330
A02
100
AcDbEntity
  8
Shape2DView001
100
AcDbLine
 10
-77.8074
 20
9.00366
 30
0
 11
-72.8105
 21
9.00895
 31
0
  0
LINE
  5
AB9
330
A02
100
AcDbEntity
  8
Shape2DView001
100
AcDbLine
 10
-77.8074
 20
4.00591
 30
0
 11
-80.3059
 21
4.00327
 31
0
  0
LINE
  5
ABA
330
A02
100
AcDbEntity
  8
Shape2DView001
100
AcDbLine
 10
-72.8105
 20
9.00895
 30
0
 11
-72.8105
 21
4.0112
 31
0
  0
LINE
  5
ABB
330
A02
100
AcDbEntity
  8
Shape2DView001
100
AcDbLine
 10
-80.3059
 20
-3.99313
 30
0
 11
-80.3059
 21
4.00327
 31
0
  0
LINE
  5
ABC
330
A02
100
AcDbEntity
  8
Shape2DView001
100
AcDbLine
 10
-72.8105
 20
4.0112
 30
0
 11
-70.3121
 21
4.01384
 31
0
  0
LINE
  5
ABD
330
A02
100
AcDbEntity
  8
Shape2DView001
100
AcDbLine
 10
-70.3121
 20
-3.98256
 30
0
 11
-80.3059
 21
-3.99313
 31
0
  0
LINE
  5
ABE
330
A02
100
AcDbEntity
  8
Shape2DView001
100
AcDbLine
 10
-70.3121
 20
4.01384
 30
0
 11
-70.3121
 21
-3.98256
 31
0
  0
LINE
  5
ABF
330
A02
100
AcDbEntity
  8
Shape2DView001
100
AcDbLine
 10
-99.9378
 20
-3.85404
 30
0
 11
-100.044
 21
-3.76413
 31
0
  0
LINE
  5
AC0
330
A02
100
AcDbEntity
  8
Shape2DView001
100
AcDbLine
 10
-58.0969
 20
15.0218
 30
0
 11
-57.9912
 21
14.9319
 31
0
  0
LINE
  5
AC1
330
A02
100
AcDbEntity
  8
Shape2DView001
100
AcDbLine
 10
-96.9397
 20
-12.0972
 30
0
 11
-97.0455
 21
-12.0072
 31
0
  0
LINE
  5
AC2
330
A02
100
AcDbEntity
  8
Shape2DView001
100
AcDbLine
 10
-70.6242
 20
-15.068
 30
0
 11
-70.7299
 21
-14.9781
 31
0
  0
LINE
  5
AC3
330
A02
100
AcDbEntity
  8
Shape2DView001
100
AcDbLine
 10
-58.0969
 20
-14.9647
 30
0
 11
-57.9912
 21
-15.0546
 31
0
  0
LINE
  5
AC4
330
A02
100
AcDbEntity
  8
Shape2DView001
100
AcDbLine
 10
-58.0969
 20
-11.966
 30
0
 11
-57.9912
 21
-12.056
 31
0
  0
LINE
  5
AC5
330
A02
100
AcDbEntity
  8
Shape2DView001
100
AcDbLine
 10
-27.5265
 20
-14.9324
 30
0
 11
-27.4207
 21
-15.0223
 31
0
  0
LINE
  5
AC6
330
A02
100
AcDbEntity
  8
Shape2DView001
100
AcDbLine
 10
27.315
 20
15.1122
 30
0
 11
27.4207
 21
15.0223
 31
0
  0
LINE
  5
AC7
330
A02
100
AcDbEntity
  8
Shape2DView001
100
AcDbLine
 10
-14.7877
 20
-15.0089
 30
0
 11
-14.8935
 21
-14.919
 31
0
  0
LINE
  5
AC8
330
A02
100
AcDbEntity
  8
Shape2DView001
100
AcDbLine
 10
-14.7877
 20
-12.0102
 30
0
 11
-14.8935
 21
-11.9203
 31
0
  0
LINE
  5
AC9
330
A02
100
AcDbEntity
  8
Shape2DView001
100
AcDbLine
 10
14.7877
 20
-14.9776
 30
0
 11
14.682
 21
-14.8877
 31
0
  0
LINE
  5
ACA
330
A02
100
AcDbEntity
  8
Shape2DView001
100
AcDbLine
 10
70.6242
 20
15.068
 30
0
 11
70.5184
 21
15.1579
 31
0
  0
LINE
  5
ACB
330
A02
100
AcDbEntity
  8
Shape2DView001
100
AcDbLine
 10
27.315
 20
-14.8743
 30
0
 11
27.4207
 21
-14.9642
 31
0
  0
LINE
  5
ACC
330
A02
100
AcDbEntity
  8
Shape2DView001
100
AcDbLine
 10
27.315
 20
-11.8757
 30
0
 11
27.4207
 21
-11.9656
 31
0
  0
LINE
  5
ACD
330
A02
100
AcDbEntity
  8
Shape2DView001
100
AcDbLine
 10
96.9397
 20
12.0972
 30
0
 11
96.8339
 21
12.1871
 31
0
  0
LINE
  5
ACE
330
A02
100
AcDbEntity
  8
Shape2DView001
100
AcDbLine
 10
57.8854
 20
-14.842
 30
0
 11
57.9912
 21
-14.9319
 31
0
  0
LINE
  5
ACF
330
A02
100
AcDbEntity
  8
Shape2DView001
100
AcDbLine
 10
99.8321
 20
3.94395
 30
0
 11
99.9378
 21
3.85404
 31
0
  0
LINE
  5
AD0
330
A02
100
AcDbEntity
  8
Shape2DView001
100
AcDbLine
 10
70.6242
 20
-14.9185
 30
0
 11
70.5184
 21
-14.8286
 31
0
  0
LINE
  5
AD1
330
A02
100
AcDbEntity
  8
Shape2DView001
100
AcDbLine
 10
99.9378
 20
-3.64259
 30
0
 11
99.8321
 21
-3.55268
 31
0
  0
LINE
  5
AD2
330
A02
100
AcDbEntity
  8
Shape2DView001
100
AcDbLine
 10
70.6242
 20
-11.9199
 30
0
 11
70.5184
 21
-11.83
 31
0
  0
LINE
  5
AD3
330
A02
100
AcDbEntity
  8
Shape2DView001
100
AcDbLine
 10
96.9397
 20
-3.64576
 30
0
 11
96.8339
 21
-3.55585
 31
0
  0
LINE
  5
AD4
330
A02
100
AcDbEntity
  8
Shape2DView001
100
AcDbLine
 10
96.9397
 20
-11.892
 30
0
 11
96.8339
 21
-11.8021
 31
0
  0
LINE
  5
AD5
330
A02
100
AcDbEntity
  8
Shape2DView001
100
AcDbLine
 10
72.7048
 20
9.07287
 30
0
 11
72.599
 21
9.16278
 31
0
  0
LINE
  5
AD6
330
A02
100
AcDbEntity
  8
Shape2DView001
100
AcDbLine
 10
72.7048
 20
4.07512
 30
0
 11
72.599
 21
4.16503
 31
0
  0
LINE
  5
AD7
330
A02
100
AcDbEntity
  8
Shape2DView001
100
AcDbLine
 10
77.7017
 20
4.0804
 30
0
 11
77.5959
 21
4.17031
 31
0
  0
LINE
  5
AD8
330
A02
100
AcDbEntity
  8
Shape2DView001
100
AcDbLine
 10
70.2063
 20
4.07247
 30
0
 11
70.1006
 21
4.16238
 31
0
  0
LINE
  5
AD9
330
A02
100
AcDbEntity
  8
Shape2DView001
100
AcDbLine
 10
51.2181
 20
9.05014
 30
0
 11
51.1124
 21
9.14005
 31
0
  0
LINE
  5
ADA
330
A02
100
AcDbEntity
  8
Shape2DView001
100
AcDbLine
 10
51.2181
 20
4.05239
 30
0
 11
51.1124
 21
4.1423
 31
0
  0
LINE
  5
ADB
330
A02
100
AcDbEntity
  8
Shape2DView001
100
AcDbLine
 10
56.215
 20
4.05767
 30
0
 11
56.1093
 21
4.14758
 31
0
  0
LINE
  5
ADC
330
A02
100
AcDbEntity
  8
Shape2DView001
100
AcDbLine
 10
48.7197
 20
4.04974
 30
0
 11
48.6139
 21
4.13965
 31
0
  0
LINE
  5
ADD
330
A02
100
AcDbEntity
  8
Shape2DView001
100
AcDbLine
 10
29.7315
 20
9.02741
 30
0
 11
29.6257
 21
9.11732
 31
0
  0
LINE
  5
ADE
330
A02
100
AcDbEntity
  8
Shape2DView001
100
AcDbLine
 10
29.7315
 20
4.02965
 30
0
 11
29.6257
 21
4.11957
 31
0
  0
LINE
  5
ADF
330
A02
100
AcDbEntity
  8
Shape2DView001
100
AcDbLine
 10
34.7284
 20
4.03494
 30
0
 11
34.6226
 21
4.12485
 31
0
  0
LINE
  5
AE0
330
A02
100
AcDbEntity
  8
Shape2DView001
100
AcDbLine
 10
27.2331
 20
4.02701
 30
0
 11
27.1273
 21
4.11692
 31
0
  0
LINE
  5
AE1
330
A02
100
AcDbEntity
  8
Shape2DView001
100
AcDbLine
 10
8.24487
 20
9.00467
 30
0
 11
8.13911
 21
9.09459
 31
0
  0
LINE
  5
AE2
330
A02
100
AcDbEntity
  8
Shape2DView001
100
AcDbLine
 10
8.24487
 20
4.00692
 30
0
 11
8.13911
 21
4.09683
 31
0
  0
LINE
  5
AE3
330
A02
100
AcDbEntity
  8
Shape2DView001
100
AcDbLine
 10
13.2418
 20
4.01221
 30
0
 11
13.136
 21
4.10212
 31
0
  0
LINE
  5
AE4
330
A02
100
AcDbEntity
  8
Shape2DView001
100
AcDbLine
 10
5.74643
 20
4.00428
 30
0
 11
5.64066
 21
4.09419
 31
0
  0
LINE
  5
AE5
330
A02
100
AcDbEntity
  8
Shape2DView001
100
AcDbLine
 10
-13.2418
 20
8.98194
 30
0
 11
-13.3475
 21
9.07185
 31
0
  0
LINE
  5
AE6
330
A02
100
AcDbEntity
  8
Shape2DView001
100
AcDbLine
 10
-13.2418
 20
3.98419
 30
0
 11
-13.3475
 21
4.0741
 31
0
  0
LINE
  5
AE7
330
A02
100
AcDbEntity
  8
Shape2DView001
100
AcDbLine
 10
-8.24487
 20
3.98948
 30
0
 11
-8.35064
 21
4.07939
 31
0
  0
LINE
  5
AE8
330
A02
100
AcDbEntity
  8
Shape2DView001
100
AcDbLine
 10
-15.7402
 20
3.98155
 30
0
 11
-15.846
 21
4.07146
 31
0
  0
LINE
  5
AE9
330
A02
100
AcDbEntity
  8
Shape2DView001
100
AcDbLine
 10
-34.7284
 20
8.95921
 30
0
 11
-34.8342
 21
9.04912
 31
0
  0
LINE
  5
AEA
330
A02
100
AcDbEntity
  8
Shape2DView001
100
AcDbLine
 10
-34.7284
 20
3.96146
 30
0
 11
-34.8342
 21
4.05137
 31
0
  0
LINE
  5
AEB
330
A02
100
AcDbEntity
  8
Shape2DView001
100
AcDbLine
 10
-29.7315
 20
3.96675
 30
0
 11
-29.8373
 21
4.05666
 31
0
  0
LINE
  5
AEC
330
A02
100
AcDbEntity
  8
Shape2DView001
100
AcDbLine
 10
-37.2268
 20
3.95882
 30
0
 11
-37.3326
 21
4.04873
 31
0
  0
LINE
  5
AED
330
A02
100
AcDbEntity
  8
Shape2DView001
100
AcDbLine
 10
-56.215
 20
8.93648
 30
0
 11
-56.3208
 21
9.02639
 31
0
  0
LINE
  5
AEE
330
A02
100
AcDbEntity
  8
Shape2DView001
100
AcDbLine
 10
-56.215
 20
3.93873
 30
0
 11
-56.3208
 21
4.02864
 31
0
  0
LINE
  5
AEF
330
A02
100
AcDbEntity
  8
Shape2DView001
100
AcDbLine
 10
-51.2181
 20
3.94402
 30
0
 11
-51.3239
 21
4.03393
 31
0
  0
LINE
  5
AF0
330
A02
100
AcDbEntity
  8
Shape2DView001
100
AcDbLine
 10
-58.7135
 20
3.93609
 30
0
 11
-58.8192
 21
4.026
 31
0
  0
LINE
  5
AF1
330
A02
100
AcDbEntity
  8
Shape2DView001
100
AcDbLine
 10
-77.7017
 20
8.91375
 30
0
 11
-77.8074
 21
9.00366
 31
0
  0
LINE
  5
AF2
330
A02
100
AcDbEntity
  8
Shape2DView001
100
AcDbLine
 10
-77.7017
 20
3.916
 30
0
 11
-77.8074
 21
4.00591
 31
0
  0
LINE
  5
AF3
330
A02
100
AcDbEntity
  8
Shape2DView001
100
AcDbLine
 10
-72.7048
 20
3.92129
 30
0
 11
-72.8105
 21
4.0112
 31
0
  0
LINE
  5
AF4
330
A02
100
AcDbEntity
  8
Shape2DView001
100
AcDbLine
 10
-80.2001
 20
3.91336
 30
0
 11
-80.3059
 21
4.00327
 31
0
  0
ENDSEC
  0
SECTION
  2
OBJECTS
  0
DICTIONARY
  5
F000
330
0
100
AcDbDictionary
  3
ACAD_GROUP
350
F001
  0
DICTIONARY
  5
F001
330
F000
100
AcDbDictionary
  0
ENDSEC
  0
EOF